<svg id="runemap" version="1.1" xmlns="http://www.w3.org/2000/svg" x="0px" y="0px" viewBox="0 0 5000 5000">
	<g class="circles">
		<circle opacity="0.01" fill="#FF0000" cx="2496" cy="2501" r="1850"/>
		<circle opacity="0.01" fill="#FF0000" cx="2500" cy="2500" r="1500"/>
		<circle opacity="0.01" fill="#FF0000" cx="2500" cy="2500" r="1150"/>
		<circle opacity="0.01" fill="#FF0000" cx="2496" cy="2501" r="1850"/>
	</g>
	<g class="items">
		<g class="item-1">
			<circle opacity="0.1" fill="#FF0000" cx="1350" cy="2500" r="120"/>
			<circle opacity="0.1" fill="#FF0000" cx="1350" cy="2500" r="100"/>
			<g class="glow">
				<g class="inner">
					<path opacity="0.1" fill="#00FFFF" d="M1470,2500c0,66.274-53.726,120-120,120s-120-53.726-120-120s53.726-120,120-120
						S1470,2433.726,1470,2500z M1480,2500c0-71.682-58.318-130-130-130s-130,58.318-130,130c0,71.683,58.318,130,130,130
						S1480,2571.683,1480,2500z"/>
				</g>
				<g class="middle">
					<path opacity="0.1" fill="#00FFFF" d="M1470,2500c0,66.274-53.726,120-120,120s-120-53.726-120-120s53.726-120,120-120
						S1470,2433.726,1470,2500z M1490,2500c0-77.196-62.804-140-140-140s-140,62.804-140,140s62.804,140,140,140
						S1490,2577.196,1490,2500z"/>
				</g>
				<g class="outer">
					<path opacity="0.1" fill="#00FFFF" d="M1350,2650c-82.71,0-150-67.29-150-150c0-82.71,67.29-150,150-150s150,67.29,150,150
						C1500,2582.71,1432.71,2650,1350,2650z M1350,2380c-66.274,0-120,53.726-120,120s53.726,120,120,120s120-53.726,120-120
						S1416.274,2380,1350,2380z"/>
				</g>
			</g>
			<g class="ring">
				<path fill="#FFFFFF" d="M1470,2500c0,66.274-53.726,120-120,120s-120-53.726-120-120s53.726-120,120-120S1470,2433.726,1470,2500
					z M1450,2500c0-55.14-44.86-100-100-100c-55.14,0-100,44.86-100,100s44.86,100,100,100C1405.14,2600,1450,2555.14,1450,2500z"/>
			</g>
		</g>
		<g id="item-2">
			<circle opacity="0.1" fill="#FF0000" cx="1419.062" cy="2106.571" r="120"/>
			<circle opacity="0.1" fill="#FF0000" cx="1419.062" cy="2106.571" r="100"/>
		</g>
		<g id="item-10">
			<circle opacity="0.1" fill="#FF0000" cx="3650" cy="2500" r="120"/>
			<circle opacity="0.1" fill="#FF0000" cx="3650" cy="2500" r="100"/>
			<g class="glow">
				<g class="inner">
					<path opacity="0.1" fill="#FF0000" d="M3770,2500c0,66.274-53.726,120-120,120s-120-53.726-120-120s53.726-120,120-120
						S3770,2433.726,3770,2500z M3780,2500c0-71.682-58.318-130-130-130s-130,58.318-130,130c0,71.683,58.318,130,130,130
						S3780,2571.683,3780,2500z"/>
				</g>
				<g class="middle">
					<path opacity="0.1" fill="#FF0000" d="M3770,2500c0,66.274-53.726,120-120,120s-120-53.726-120-120s53.726-120,120-120
						S3770,2433.726,3770,2500z M3790,2500c0-77.196-62.804-140-140-140s-140,62.804-140,140s62.804,140,140,140
						S3790,2577.196,3790,2500z"/>
				</g>
				<g class="outer">
					<path opacity="0.1" fill="#FF0000" d="M3650,2650c-82.71,0-150-67.29-150-150c0-82.71,67.29-150,150-150s150,67.29,150,150
						C3800,2582.71,3732.71,2650,3650,2650z M3650,2380c-66.274,0-120,53.726-120,120s53.726,120,120,120s120-53.726,120-120
						S3716.274,2380,3650,2380z"/>
				</g>
			</g>
			<g class="ring">
				<path fill="#FFFFFF" d="M3770,2500c0,66.274-53.726,120-120,120s-120-53.726-120-120s53.726-120,120-120S3770,2433.726,3770,2500
					z M3750,2500c0-55.14-44.86-100-100-100c-55.14,0-100,44.86-100,100s44.86,100,100,100C3705.14,2600,3750,2555.14,3750,2500z"/>
			</g>
		</g>
	</g>
</svg>